<svg width="20" height="20" viewBox="0 0 20 20" fill="none" xmlns="http://www.w3.org/2000/svg">
<g id="currency-dollar_20">
<path id="Vector" d="M9.98875 2.79125V1.75H10.2925V2.76V3.22926L10.7608 3.259C12.8293 3.39034 14.2085 4.43617 14.614 5.85375H13.7568C13.34 4.6949 12.2512 3.97437 10.8413 3.83614L10.2925 3.78233V4.33375V9.08625V9.47325L10.6671 9.57028L11.5696 9.80403L11.5702 9.80416C12.7843 10.1172 13.609 10.5359 14.1286 11.0615C14.632 11.5707 14.89 12.2216 14.89 13.105C14.89 14.1322 14.5064 14.9702 13.8216 15.5841C13.1283 16.2056 12.0923 16.626 10.7532 16.7315L10.2925 16.7679V17.23V18.25H9.98875V17.23V16.7655L9.52547 16.7313C7.35696 16.5717 5.97025 15.4776 5.58995 13.9762H6.44828C6.86997 15.1585 7.99423 15.9079 9.41682 16.1184L9.99 16.2032V15.6237V10.585V10.2005L9.61834 10.1018L8.85584 9.89925L8.85584 9.89923L8.85152 9.89813C7.85882 9.64395 7.1225 9.22629 6.63796 8.69914C6.15998 8.17911 5.90125 7.52559 5.90125 6.73625C5.90125 4.95395 7.30001 3.55438 9.54765 3.28777L9.98875 3.23545V2.79125ZM7.39458 8.27059C7.81557 8.69568 8.40826 8.9874 9.11584 9.16591C9.11606 9.16596 9.11628 9.16602 9.1165 9.16607L9.3652 9.2295L9.98875 9.3885V8.745V4.37625V3.78371L9.40465 3.88337C7.86671 4.14578 6.73875 5.1709 6.73875 6.66125C6.73875 7.28515 6.96326 7.83507 7.39458 8.27059ZM11.3492 10.5363L11.3488 10.5362L10.9138 10.4274L10.2925 10.2721V10.9125V15.6562V16.1983L10.8328 16.1546C11.7665 16.0792 12.5671 15.7891 13.1424 15.2815C13.7276 14.7651 14.0425 14.0549 14.0425 13.2325C14.0425 12.5458 13.8227 11.9566 13.3334 11.4899C12.8648 11.0431 12.1889 10.747 11.3492 10.5363Z" stroke="#3C3C3C"/>
</g>
</svg>
