<svg width="16" height="17" viewBox="0 0 16 17" fill="none" xmlns="http://www.w3.org/2000/svg">
<g id="mail-01">
<path id="Icon" d="M1.33398 4.87305L6.77726 8.68334C7.21804 8.99189 7.43844 9.14616 7.67816 9.20592C7.88991 9.2587 8.11139 9.2587 8.32314 9.20592C8.56287 9.14616 8.78326 8.99189 9.22404 8.68334L14.6673 4.87305M4.53398 13.5397H11.4673C12.5874 13.5397 13.1475 13.5397 13.5753 13.3217C13.9516 13.13 14.2576 12.824 14.4493 12.4477C14.6673 12.0199 14.6673 11.4598 14.6673 10.3397V6.07305C14.6673 4.95294 14.6673 4.39289 14.4493 3.96507C14.2576 3.58874 13.9516 3.28278 13.5753 3.09103C13.1475 2.87305 12.5874 2.87305 11.4673 2.87305H4.53398C3.41388 2.87305 2.85383 2.87305 2.426 3.09103C2.04968 3.28278 1.74372 3.58874 1.55197 3.96507C1.33398 4.39289 1.33398 4.95294 1.33398 6.07305V10.3397C1.33398 11.4598 1.33398 12.0199 1.55197 12.4477C1.74372 12.824 2.04968 13.13 2.426 13.3217C2.85383 13.5397 3.41388 13.5397 4.53398 13.5397Z" stroke="#696783" stroke-width="1.2" stroke-linecap="round" stroke-linejoin="round"/>
</g>
</svg>
