<svg width="16" height="17" viewBox="0 0 16 17" fill="none" xmlns="http://www.w3.org/2000/svg">
<g id="message-dots-square">
<path id="Icon" d="M5 7.20605H5.00667M8 7.20605H8.00667M11 7.20605H11.0067M4.66667 12.2061V13.7631C4.66667 14.1183 4.66667 14.2959 4.73949 14.3871C4.80282 14.4665 4.89885 14.5126 5.00036 14.5125C5.11708 14.5124 5.25578 14.4014 5.53317 14.1795L7.12348 12.9073C7.44834 12.6474 7.61078 12.5174 7.79166 12.425C7.95213 12.343 8.12295 12.2831 8.29948 12.2469C8.49845 12.2061 8.70646 12.2061 9.1225 12.2061H10.8C11.9201 12.2061 12.4802 12.2061 12.908 11.9881C13.2843 11.7963 13.5903 11.4904 13.782 11.114C14 10.6862 14 10.1262 14 9.00605V5.40605C14 4.28595 14 3.7259 13.782 3.29807C13.5903 2.92175 13.2843 2.61579 12.908 2.42404C12.4802 2.20605 11.9201 2.20605 10.8 2.20605H5.2C4.0799 2.20605 3.51984 2.20605 3.09202 2.42404C2.71569 2.61579 2.40973 2.92175 2.21799 3.29807C2 3.7259 2 4.28595 2 5.40605V9.53939C2 10.1594 2 10.4694 2.06815 10.7237C2.25308 11.4139 2.79218 11.953 3.48236 12.1379C3.7367 12.2061 4.04669 12.2061 4.66667 12.2061ZM5.33333 7.20605C5.33333 7.39015 5.1841 7.53939 5 7.53939C4.81591 7.53939 4.66667 7.39015 4.66667 7.20605C4.66667 7.02196 4.81591 6.87272 5 6.87272C5.1841 6.87272 5.33333 7.02196 5.33333 7.20605ZM8.33333 7.20605C8.33333 7.39015 8.1841 7.53939 8 7.53939C7.81591 7.53939 7.66667 7.39015 7.66667 7.20605C7.66667 7.02196 7.81591 6.87272 8 6.87272C8.1841 6.87272 8.33333 7.02196 8.33333 7.20605ZM11.3333 7.20605C11.3333 7.39015 11.1841 7.53939 11 7.53939C10.8159 7.53939 10.6667 7.39015 10.6667 7.20605C10.6667 7.02196 10.8159 6.87272 11 6.87272C11.1841 6.87272 11.3333 7.02196 11.3333 7.20605Z" stroke="#4C42D7" stroke-width="1.2" stroke-linecap="round" stroke-linejoin="round"/>
</g>
</svg>
