<svg width="20" height="20" viewBox="0 0 20 20" fill="none" xmlns="http://www.w3.org/2000/svg">
<g id="messages-square_20" clip-path="url(#clip0_105_1869)">
<path id="Vector" d="M15 7.5H16.6666C17.1087 7.5 17.5326 7.67559 17.8451 7.98815C18.1577 8.30071 18.3333 8.72464 18.3333 9.16666V18.3333L15 15H9.99996C9.55793 15 9.13401 14.8244 8.82145 14.5118C8.50889 14.1993 8.33329 13.7754 8.33329 13.3333V12.5M11.6666 7.5C11.6666 7.94202 11.491 8.36595 11.1785 8.67851C10.8659 8.99107 10.442 9.16666 9.99996 9.16666H4.99996L1.66663 12.5V3.33333C1.66663 2.41666 2.41663 1.66666 3.33329 1.66666H9.99996C10.442 1.66666 10.8659 1.84226 11.1785 2.15482C11.491 2.46738 11.6666 2.8913 11.6666 3.33333V7.5Z" stroke="#878787" stroke-width="1.5" stroke-linecap="round" stroke-linejoin="round"/>
</g>
<defs>
<clipPath id="clip0_105_1869">
<rect width="20" height="20" fill="white"/>
</clipPath>
</defs>
</svg>
