<svg width="16" height="17" viewBox="0 0 16 17" fill="none" xmlns="http://www.w3.org/2000/svg">
<g id="phone">
<path id="Icon" d="M5.58685 6.10829C6.05085 7.0747 6.68337 7.98046 7.48443 8.78152C8.28548 9.58257 9.19124 10.2151 10.1577 10.6791C10.2408 10.719 10.2823 10.739 10.3349 10.7543C10.5218 10.8088 10.7513 10.7696 10.9096 10.6563C10.9542 10.6244 10.9923 10.5863 11.0685 10.5101C11.3016 10.277 11.4181 10.1605 11.5353 10.0843C11.9772 9.79696 12.5469 9.79696 12.9889 10.0843C13.106 10.1605 13.2226 10.277 13.4556 10.5101L13.5856 10.64C13.9398 10.9943 14.117 11.1714 14.2132 11.3617C14.4046 11.7401 14.4046 12.1869 14.2132 12.5653C14.117 12.7555 13.9399 12.9327 13.5856 13.287L13.4805 13.3921C13.1274 13.7452 12.9508 13.9217 12.7108 14.0565C12.4445 14.2061 12.0308 14.3137 11.7253 14.3128C11.45 14.312 11.2619 14.2586 10.8856 14.1518C8.86333 13.5778 6.95509 12.4948 5.36311 10.9028C3.77112 9.31085 2.68814 7.40261 2.11416 5.38034C2.00735 5.00405 1.95395 4.8159 1.95313 4.5406C1.95222 4.23512 2.0598 3.82146 2.20941 3.55512C2.34424 3.3151 2.52078 3.13856 2.87386 2.78548L2.97895 2.68039C3.33325 2.32609 3.5104 2.14894 3.70065 2.05271C4.07903 1.86133 4.52587 1.86133 4.90424 2.05271C5.0945 2.14894 5.27164 2.32609 5.62594 2.68039L5.75585 2.8103C5.98892 3.04337 6.10546 3.15991 6.18165 3.27709C6.46898 3.71902 6.46898 4.28874 6.18165 4.73067C6.10546 4.84785 5.98892 4.96439 5.75585 5.19746C5.67964 5.27367 5.64154 5.31177 5.60965 5.35631C5.4963 5.5146 5.45717 5.7441 5.51165 5.93101C5.52698 5.9836 5.54694 6.02516 5.58685 6.10829Z" stroke="#696783" stroke-width="1.2" stroke-linecap="round" stroke-linejoin="round"/>
</g>
</svg>
