<svg width="16" height="17" viewBox="0 0 16 17" fill="none" xmlns="http://www.w3.org/2000/svg">
<g id="share-2_16" clip-path="url(#clip0_108_1342)">
<path id="Vector" d="M12 5.5397C13.1046 5.5397 14 4.64427 14 3.5397C14 2.43513 13.1046 1.5397 12 1.5397C10.8954 1.5397 10 2.43513 10 3.5397C10 4.64427 10.8954 5.5397 12 5.5397Z" stroke="#4F46E5" stroke-width="1.2" stroke-linecap="round" stroke-linejoin="round"/>
<path id="Vector_2" d="M4 10.2064C5.10457 10.2064 6 9.31093 6 8.20636C6 7.10179 5.10457 6.20636 4 6.20636C2.89543 6.20636 2 7.10179 2 8.20636C2 9.31093 2.89543 10.2064 4 10.2064Z" stroke="#4F46E5" stroke-width="1.2" stroke-linecap="round" stroke-linejoin="round"/>
<path id="Vector_3" d="M12 14.873C13.1046 14.873 14 13.9776 14 12.873C14 11.7684 13.1046 10.873 12 10.873C10.8954 10.873 10 11.7684 10 12.873C10 13.9776 10.8954 14.873 12 14.873Z" stroke="#4F46E5" stroke-width="1.2" stroke-linecap="round" stroke-linejoin="round"/>
<path id="Vector_4" d="M5.72668 9.21301L10.28 11.8663" stroke="#4F46E5" stroke-width="1.2" stroke-linecap="round" stroke-linejoin="round"/>
<path id="Vector_5" d="M10.2734 4.54636L5.72668 7.19969" stroke="#4F46E5" stroke-width="1.2" stroke-linecap="round" stroke-linejoin="round"/>
</g>
<defs>
<clipPath id="clip0_108_1342">
<rect width="16" height="16" fill="white" transform="translate(0 0.20636)"/>
</clipPath>
</defs>
</svg>
